<?xml version="1.0" encoding="UTF-8"?>
<svg version="1.1" xmlns="http://www.w3.org/2000/svg" width="3200" height="3200">
<path d="M0 0 C1056 0 2112 0 3200 0 C3200 1056 3200 2112 3200 3200 C2144 3200 1088 3200 0 3200 C0 2144 0 1088 0 0 Z " fill="#060200" transform="translate(0,0)"/>
<path d="M0 0 C1.29006958 0.00027191 2.58013916 0.00054382 3.90930176 0.00082397 C22.51066191 0.0188547 40.99097436 0.28623676 59.53076172 1.88427734 C63.07218465 2.18833149 66.61515887 2.44842518 70.16015625 2.70703125 C126.89910733 7.23040045 183.27004377 22.77074467 235.0625 46.1875 C235.97596191 46.59677734 236.88942383 47.00605469 237.83056641 47.42773438 C280.5693324 66.70557979 320.02884141 93.48833857 354.625 125.03515625 C357.080286 127.20320526 359.61410477 129.22421715 362.1875 131.25 C388.1592911 152.36828948 388.1592911 152.36828948 390.50390625 164.46484375 C390.67516066 167.51980149 390.43604708 169.64415879 388.6875 172.1875 C387.0625 173.1875 387.0625 173.1875 385.0625 173.1875 C384.83304688 173.88875 384.60359375 174.59 384.3671875 175.3125 C382.80422186 178.75663986 380.65277184 181.36801749 378.1875 184.1875 C377.7028125 184.75073975 377.218125 185.31397949 376.71875 185.89428711 C371.78666187 191.58594842 366.67139207 197.10663175 361.53125 202.60986328 C359.1928712 205.12159929 356.87797306 207.65466451 354.5625 210.1875 C351.21140158 213.84924415 347.85047128 217.50158608 344.47973633 221.14526367 C339.6844374 226.32922701 334.91716356 231.53510558 330.20703125 236.796875 C328.7530406 238.41771704 327.29184894 240.0321228 325.82421875 241.640625 C322.06316162 245.77194164 318.42314659 249.94565062 314.9375 254.3125 C310.41004877 259.91601799 305.51899907 265.13690933 300.55419922 270.35400391 C296.85656251 274.24362387 293.27032709 278.20366649 289.75146484 282.25561523 C284.37544112 288.40486006 278.70897288 294.2880038 273.0625 300.1875 C272.05028187 301.25161705 271.03807552 302.3157453 270.02587891 303.37988281 C267.2634642 306.2781229 264.47912968 309.15403242 261.68206787 312.01882935 C260.56327365 313.17028332 259.45062322 314.32773975 258.34429932 315.49118042 C256.77598078 317.13745838 255.18630881 318.75997053 253.58984375 320.37890625 C253.12153641 320.88016022 252.65322906 321.38141418 252.17073059 321.89785767 C250.80053711 323.26000977 250.80053711 323.26000977 248.0625 325.1875 C239.36741238 324.84436892 233.11193301 318.49199816 227.43652344 312.45410156 C223.76004581 308.44193555 220.19451336 304.34821358 216.6875 300.1875 C180.31334227 258.46677933 120.99615361 233.10707093 67.0625 225.1875 C65.91894043 225.01379883 64.77538086 224.84009766 63.59716797 224.66113281 C50.74232764 222.85229809 37.89921373 222.79252836 24.9375 222.8125 C23.79341675 222.81204681 22.6493335 222.81159363 21.47058105 222.81112671 C2.98823452 222.83259079 -14.72645861 223.95735959 -32.9375 227.1875 C-34.48518188 227.43154687 -36.03330597 227.67282092 -37.58203125 227.91015625 C-80.67445791 235.08506677 -122.06591759 254.16573868 -156.9375 280.1875 C-157.55995605 280.6515625 -158.18241211 281.115625 -158.82373047 281.59375 C-167.69614181 288.26523474 -175.94835045 295.4861613 -183.9375 303.1875 C-184.49356934 303.72165527 -185.04963867 304.25581055 -185.62255859 304.80615234 C-192.94338947 311.87490296 -199.66180393 319.15942806 -205.9375 327.1875 C-206.81757691 328.27850167 -207.69915767 329.3682915 -208.58203125 330.45703125 C-215.22916609 338.70509575 -221.2626 347.24459167 -226.9375 356.1875 C-227.30552734 356.76516113 -227.67355469 357.34282227 -228.05273438 357.93798828 C-252.11462908 396.02878838 -267.56780174 438.91252081 -275.6875 483.125 C-275.87393066 484.12088135 -276.06036133 485.1167627 -276.25244141 486.14282227 C-276.89029358 489.81519182 -277.43522432 493.49467453 -277.9375 497.1875 C-278.0641806 498.11314758 -278.19086121 499.03879517 -278.32138062 499.99249268 C-280.84230365 519.05345838 -281.37951645 537.8182369 -281.2600708 557.00024414 C-281.24665187 559.91467306 -281.25191704 562.82894892 -281.25692368 565.74339485 C-281.28767268 589.31387068 -281.00912143 613.09298835 -276.5625 636.3125 C-276.33973389 637.52437988 -276.11696777 638.73625977 -275.88745117 639.98486328 C-275.25384216 643.38911924 -274.59739546 646.78826487 -273.9375 650.1875 C-273.64949127 651.7655797 -273.36169714 653.3436986 -273.07421875 654.921875 C-263.95312307 702.31968443 -241.54610031 751.91167982 -210.9375 789.1875 C-209.99864188 790.39536807 -209.06394595 791.60647958 -208.1328125 792.8203125 C-203.90629203 798.31886477 -199.72900635 803.7431837 -194.65429688 808.49951172 C-192.89690589 810.22741292 -191.31628896 812.0347093 -189.72265625 813.9140625 C-186.08385907 818.10102718 -182.19088278 821.91874889 -178.125 825.6875 C-177.41851318 826.34403564 -176.71202637 827.00057129 -175.98413086 827.67700195 C-170.81907937 832.44233108 -165.59656652 837.01211424 -159.9375 841.1875 C-159.34420898 841.62626465 -158.75091797 842.0650293 -158.13964844 842.51708984 C-88.71016565 893.54214132 -2.5779231 907.93446013 81.33764648 895.35009766 C114.27569415 890.24518232 146.98702529 879.03259226 174.0625 859.1875 C175.6403125 858.03507812 175.6403125 858.03507812 177.25 856.859375 C184.96844981 851.11907776 192.12038779 844.84114143 199.0625 838.1875 C199.64789551 837.63465332 200.23329102 837.08180664 200.83642578 836.51220703 C215.08502757 823.00622782 226.61079724 807.76519071 237.0625 791.1875 C237.48128418 790.52814453 237.90006836 789.86878906 238.33154297 789.18945312 C250.15785738 770.39989794 256.98392569 750.45892601 263.0625 729.1875 C263.28421875 728.41809082 263.5059375 727.64868164 263.734375 726.85595703 C266.18001914 718.22803848 267.72859375 709.53524512 269.171875 700.6953125 C269.35476074 699.58615479 269.53764648 698.47699707 269.72607422 697.33422852 C270.17350022 694.6189668 270.61892449 691.90339293 271.0625 689.1875 C269.3222982 689.19303076 269.3222982 689.19303076 267.5469408 689.19867325 C240.01286987 689.28528897 212.47881257 689.35125418 184.94463356 689.39176132 C181.55626914 689.39676419 178.16790501 689.40194148 174.77954102 689.40722656 C173.76768994 689.40880043 173.76768994 689.40880043 172.73539742 689.41040608 C161.81030086 689.4278153 150.88528842 689.45935579 139.96024177 689.49611118 C128.75163244 689.5335063 117.54306517 689.55543337 106.33439034 689.56385398 C100.03798587 689.56907563 93.74177225 689.58137599 87.44542885 689.61042023 C81.52180285 689.63752436 75.59844674 689.64595503 69.67476463 689.63993073 C67.49828501 689.64103319 65.32179657 689.6490166 63.14537048 689.6643219 C60.17778208 689.68417116 57.21121778 689.67945734 54.24360657 689.66851807 C52.94642141 689.68599512 52.94642141 689.68599512 51.62303048 689.70382524 C47.81158047 689.66574818 45.47647395 689.39650721 42.02752209 687.6552 C39.33705723 684.27647964 39.37238406 681.36608679 39.44104004 677.22328186 C39.43465122 676.41484862 39.4282624 675.60641539 39.42167997 674.77348417 C39.40640258 672.06080884 39.42690873 669.34958768 39.44726562 666.63696289 C39.44376522 664.69376643 39.43810755 662.75057283 39.43045044 660.80738831 C39.41618035 655.5262765 39.43328648 650.24568398 39.45673561 644.96462178 C39.47681616 639.44162118 39.47096646 633.91864275 39.46862793 628.39561462 C39.46868154 619.11888039 39.48845821 609.84234959 39.52050781 600.56567383 C39.55739121 589.83766817 39.56618519 579.1099292 39.5592103 568.38186842 C39.55290645 558.06726543 39.56365813 547.752754 39.58317566 537.43816948 C39.59135449 533.04632705 39.59405831 528.65453137 39.59248352 524.26268196 C39.59160501 519.09079799 39.60581179 513.91916774 39.63171005 508.74735069 C39.63887675 506.84825495 39.64095306 504.94913223 39.63759232 503.05002594 C39.63388198 500.45930864 39.64860942 497.86933354 39.66809082 495.27870178 C39.66009893 494.14902917 39.66009893 494.14902917 39.65194559 492.99653488 C39.71021925 488.51049609 40.13165996 485.63298889 43.0625 482.1875 C45.85778908 481.67730842 48.05638148 481.51833194 50.85713196 481.56388092 C52.06647488 481.5538789 52.06647488 481.5538789 53.30024898 481.54367483 C56.02527388 481.52732027 58.7488866 481.5468794 61.47387695 481.56604004 C63.43773885 481.56171478 65.40159696 481.5552022 67.36544514 481.54667997 C72.78018539 481.52961236 78.19446648 481.54392258 83.60918283 481.56319475 C89.44157151 481.57856693 95.27390188 481.56523411 101.10629272 481.55545044 C112.53910539 481.54089305 123.97174103 481.55318894 135.40453696 481.57456368 C148.03456058 481.59731375 160.66454593 481.59714408 173.29458516 481.59464902 C198.41163122 481.5897748 223.52858394 481.61246092 248.64560099 481.64860525 C270.9743653 481.68059999 293.30304985 481.69264908 315.63183594 481.68652344 C317.06549807 481.68613659 318.49916021 481.68575014 319.93282235 481.68536407 C320.9959709 481.68507705 320.9959709 481.68507705 322.0805972 481.68478423 C325.64821897 481.68382993 329.21584074 481.68291556 332.78346252 481.68204498 C333.48725621 481.68187119 334.1910499 481.6816974 334.91617066 481.68151833 C353.55830498 481.67716587 372.20043066 481.68717167 390.84255886 481.70188284 C391.83694159 481.70266305 391.83694159 481.70266305 392.85141285 481.70345903 C396.18064436 481.7060719 399.50987586 481.70869935 402.83910733 481.71136597 C412.12065677 481.71827322 421.40219487 481.71892895 430.68374634 481.71748352 C441.9883148 481.71604656 453.29281147 481.72568441 464.59735608 481.74942988 C470.36978766 481.7613226 476.14211894 481.76839336 481.91456223 481.76259232 C487.19208855 481.75744519 492.46940244 481.76602073 497.74689233 481.78586692 C499.66271906 481.79063229 501.57856631 481.79027441 503.49439013 481.78445655 C506.08580681 481.77734367 508.67650613 481.78844919 511.26786804 481.80438995 C512.02279789 481.79793815 512.77772774 481.79148635 513.55553424 481.78483903 C518.56673625 481.84325264 518.56673625 481.84325264 520.9871645 483.52394438 C522.97686452 486.60203178 523.18902836 489.2750319 523.19621277 492.83235168 C523.20047775 493.78811096 523.20474274 494.74387024 523.20913696 495.72859192 C523.20868378 496.77697739 523.20823059 497.82536285 523.20776367 498.90551758 C523.21280159 500.56561356 523.21280159 500.56561356 523.21794128 502.25924683 C523.22749608 505.95018625 523.22939932 509.64108019 523.23046875 513.33203125 C523.23368768 515.93039467 523.23705222 518.52875792 523.24055481 521.12712097 C523.2469698 526.61266366 523.24843679 532.0981943 523.24780273 537.58374023 C523.24727831 543.11762462 523.25411493 548.6514368 523.26831055 554.18530273 C523.33600302 581.18715536 523.35171862 608.17176831 522.13671875 635.15234375 C522.09510305 636.07856852 522.05348736 637.00479328 522.01061058 637.95908546 C521.33545268 652.52893736 520.19625605 667.0084686 518.4921875 681.49707031 C518.10710788 684.80437911 517.7435866 688.11295091 517.38867188 691.42356873 C511.624442 745.05187156 498.74672549 796.13787287 476.0625 845.1875 C475.66337402 846.05052734 475.26424805 846.91355469 474.85302734 847.80273438 C454.78176687 890.64633904 425.69648469 932.24439153 391.84155273 965.37426758 C390.08447125 967.16510663 388.46304678 969.02125087 386.83984375 970.93359375 C383.21094039 975.10443887 379.3128353 978.88142613 375.25 982.625 C374.54786377 983.27678223 373.84572754 983.92856445 373.12231445 984.60009766 C371.10681176 986.46744594 369.08571433 988.32851443 367.0625 990.1875 C366.11375 991.06277344 365.165 991.93804688 364.1875 992.83984375 C358.85802801 997.69957061 353.37885116 1002.34904213 347.74121094 1006.84765625 C346.54419189 1007.80304318 345.3498125 1008.76174129 344.15722656 1009.72265625 C322.03876134 1027.5014891 298.0416592 1042.522261 273.13085938 1056.05712891 C271.26065027 1057.07920966 269.40241403 1058.11957857 267.546875 1059.16796875 C220.83065702 1085.03254149 168.3037801 1100.48914761 116.0625 1110.1875 C115.34973907 1110.32138123 114.63697815 1110.45526245 113.90261841 1110.59320068 C104.12949474 1112.42151594 94.40318292 1113.85113199 84.5 1114.8125 C83.32759766 1114.93367188 82.15519531 1115.05484375 80.94726562 1115.1796875 C66.61401196 1116.62005816 52.33046157 1117.35545488 37.9296875 1117.4609375 C37.19209576 1117.46719587 36.45450401 1117.47345425 35.694561 1117.47990227 C30.1089007 1117.52573941 24.52332605 1117.54939353 18.9375 1117.5625 C17.70491707 1117.56573084 17.70491707 1117.56573084 16.44743347 1117.56902695 C-10.51074402 1117.62591443 -36.95762328 1116.58412287 -63.65576172 1112.5324707 C-65.87462303 1112.19700622 -68.09500584 1111.87480865 -70.31640625 1111.55664062 C-87.7388562 1109.04073873 -104.86656347 1105.45835793 -121.9375 1101.1875 C-123.08589355 1100.90567871 -124.23428711 1100.62385742 -125.41748047 1100.33349609 C-191.26416412 1084.06274373 -253.53472432 1055.25507857 -308.9375 1016.1875 C-309.66855957 1015.67574219 -310.39961914 1015.16398437 -311.15283203 1014.63671875 C-320.43955763 1008.12194304 -329.33088689 1001.37411068 -337.84765625 993.87890625 C-340.45075249 991.58916776 -343.13195688 989.43396685 -345.875 987.3125 C-352.24171052 982.27305161 -358.05988672 976.64362019 -363.94873047 971.06298828 C-365.84136242 969.27816154 -367.74765297 967.50958387 -369.66015625 965.74609375 C-378.62079504 957.45325788 -387.33735732 948.91765972 -395.99285889 940.30838013 C-397.27219345 939.0364539 -398.55311666 937.76612324 -399.83575439 936.49752808 C-407.35619514 929.05190471 -414.42068481 921.54121764 -420.9375 913.1875 C-421.89044285 912.00661322 -422.84465696 910.82674985 -423.80078125 909.6484375 C-464.39300424 858.50353134 -491.54196294 797.85014392 -508.9375 735.1875 C-509.16332764 734.37490723 -509.38915527 733.56231445 -509.62182617 732.72509766 C-511.12952416 727.23040386 -512.54193934 721.71159428 -513.9375 716.1875 C-514.16695312 715.28676758 -514.39640625 714.38603516 -514.6328125 713.45800781 C-526.99001502 664.35170715 -532.40581863 613.94680152 -532.19585419 563.37254333 C-532.1873206 561.26826147 -532.18149783 559.16398443 -532.17608643 557.05969238 C-532.02260118 504.34095403 -526.27084672 452.30386669 -512.9375 401.1875 C-512.73753418 400.4155127 -512.53756836 399.64352539 -512.33154297 398.84814453 C-501.7758766 358.72324016 -486.58228939 320.19414454 -467.9375 283.1875 C-467.48810059 282.28757324 -467.03870117 281.38764648 -466.57568359 280.46044922 C-457.65877733 262.67882302 -447.29933883 245.51472259 -435.9375 229.1875 C-435.49728516 228.55183105 -435.05707031 227.91616211 -434.60351562 227.26123047 C-425.4896338 214.12276064 -415.98806064 201.44817543 -405.58203125 189.30078125 C-403.18422003 186.49571314 -400.86940535 183.63046865 -398.5625 180.75 C-393.93408073 175.05604536 -388.94312186 169.73525427 -383.921875 164.390625 C-381.73702695 162.06065789 -379.6223033 159.69203484 -377.5625 157.25 C-370.03121878 148.52956911 -361.60601856 140.20226727 -352.80078125 132.7734375 C-350.58278815 130.88558593 -348.45507845 128.91047208 -346.3125 126.9375 C-340.66422047 121.84280377 -334.71157273 117.18486817 -328.69140625 112.54296875 C-327.03821649 111.26533657 -325.39302864 109.97815841 -323.75 108.6875 C-248.43356328 49.94067936 -156.2589451 15.02301773 -61.79541016 3.54150391 C-59.32099234 3.23500247 -56.8540381 2.90141025 -54.38671875 2.54296875 C-36.30707383 -0.06665809 -18.23057707 -0.01438935 0 0 Z " fill="#EFE8E2" transform="translate(1477.9375,1070.8125)"/>
<path d="M0 0 C3.98615298 0.83179092 7.98966775 1.56576761 11.99243164 2.31274414 C25.48610476 4.84249501 38.87890551 7.75499771 52.26708984 10.78857422 C56.76959983 11.80577194 61.27564777 12.80666876 65.78222656 13.80566406 C68.04239129 14.30712381 70.30215498 14.81039439 72.56152344 15.31542969 C78.0186688 16.53422875 83.47821534 17.73304603 88.95117188 18.87890625 C145.54222186 30.84832959 199.82082911 50.36387878 252.65820312 73.6796875 C253.7192627 74.14624756 254.78032227 74.61280762 255.87353516 75.09350586 C269.43742119 81.13133212 282.6056428 87.96409549 295.71313477 94.92700195 C297.72185198 95.99279707 299.73389052 97.05213247 301.74609375 98.11132812 C310.31711455 102.64505498 318.67556091 107.45618346 326.94869995 112.5118103 C329.50058435 114.0685796 332.06450216 115.60523516 334.62695312 117.14453125 C344.87090609 123.33358617 355.00466558 129.61930238 364.89453125 136.36035156 C366.76009762 137.62368914 368.63700454 138.86849703 370.51757812 140.109375 C378.04166258 145.07553434 385.4089192 150.19179762 392.65820312 155.5546875 C393.8424761 156.41882301 395.02741229 157.28205007 396.21289062 158.14453125 C404.46294714 164.15338455 412.60935074 170.27910908 420.65820312 176.5546875 C421.2345752 177.00344238 421.81094727 177.45219727 422.40478516 177.91455078 C428.4326072 182.6127304 434.41977495 187.33914842 440.28320312 192.2421875 C443.90733952 195.23051049 447.60302598 197.92008204 451.53320312 200.4921875 C468.22130686 211.43168995 482.12283498 224.96838871 496.22070312 238.9921875 C496.95828857 239.72501953 497.69587402 240.45785156 498.45581055 241.21289062 C503.06013161 245.83136915 507.42399465 250.5958949 511.65820312 255.5546875 C512.14538818 256.12018311 512.63257324 256.68567871 513.13452148 257.26831055 C514.54170187 258.90251051 515.94430133 260.54053064 517.34570312 262.1796875 C518.39126466 263.40105141 519.43683791 264.62240529 520.48242188 265.84375 C521.00884277 266.45895508 521.53526367 267.07416016 522.07763672 267.70800781 C524.60281458 270.65833919 527.13059758 273.60643601 529.65820312 276.5546875 C530.65821654 277.72134267 531.65821652 278.88800935 532.65820312 280.0546875 C533.15320312 280.6321875 533.64820312 281.2096875 534.15820312 281.8046875 C535.65820312 283.5546875 537.15820312 285.3046875 538.65820312 287.0546875 C539.15328369 287.6321875 539.64836426 288.2096875 540.15844727 288.8046875 C541.15800887 289.97103254 542.15719538 291.13769915 543.15600586 292.3046875 C545.65973077 295.22903167 548.16979561 298.14743821 550.69335938 301.0546875 C557.07236153 308.41839543 563.20551821 315.92697606 569.16601562 323.6328125 C570.76895098 325.69732609 572.38452371 327.75151226 574.00195312 329.8046875 C607.09361956 371.89658529 636.52580291 417.73042265 658.65820312 466.5546875 C659.07763184 467.4734668 659.49706055 468.39224609 659.92919922 469.33886719 C675.00581958 502.54794497 686.10370998 536.66652963 692.65820312 572.5546875 C692.87863281 573.71387695 692.87863281 573.71387695 693.10351562 574.89648438 C694.87854638 584.49864541 694.87959496 594.19678656 694.97070312 603.9296875 C694.98858887 605.21480225 695.00647461 606.49991699 695.02490234 607.82397461 C695.01215317 621.82712023 691.03499158 634.52190953 681.33398438 645 C669.71764952 655.77692604 654.87121883 658.15059459 639.60742188 657.90234375 C632.69409441 657.58490182 626.91967602 655.49839294 620.65820312 652.5546875 C619.830625 652.17054688 619.00304688 651.78640625 618.15039062 651.390625 C597.36854051 640.74626274 590.83379614 621.79393985 583.77682495 600.92984009 C582.27707826 596.5052106 580.74341653 592.09238662 579.20898438 587.6796875 C578.90497208 586.8050032 578.60095978 585.93031891 578.28773499 585.02912903 C555.75755814 520.46958444 523.53129158 456.98671461 481.95898438 402.5703125 C480.22815925 400.30172677 478.51989981 398.02256765 476.82617188 395.7265625 C471.20169618 388.11847916 465.41688856 380.73737277 459.24023438 373.5703125 C456.82566788 370.75027418 454.48477515 367.88490582 452.15820312 364.9921875 C448.03078204 359.91797448 443.65500683 355.11648783 439.21289062 350.3203125 C434.61569591 345.3435329 430.21465186 340.22073257 425.86425781 335.02758789 C412.88951213 319.5683648 399.01657514 305.74110545 383.58203125 292.74755859 C380.17436553 289.86877047 376.83166796 286.93402171 373.53320312 283.9296875 C368.39715979 279.27179908 363.06053242 274.89882858 357.65820312 270.5546875 C356.5018472 269.61731815 355.34560233 268.6798118 354.18945312 267.7421875 C308.65557232 230.92704446 258.05378113 200.49141666 204.65820312 176.5546875 C203.51770508 176.04212402 202.37720703 175.52956055 201.20214844 175.00146484 C185.55139821 167.96437429 185.55139821 167.96437429 169.59960938 161.65234375 C167.09879394 160.71910452 164.62824534 159.73958171 162.15429688 158.73828125 C137.32760547 148.78783711 111.85419977 141.21785486 86.06903076 134.21026611 C83.83623643 133.60310026 81.60479541 132.99119155 79.37353516 132.37841797 C28.72607756 118.54308063 -23.80321714 111.76648263 -76.16821289 109.28857422 C-95.08597119 108.36324303 -113.95615484 106.89898169 -129.34179688 94.5546875 C-130.11007812 93.95914063 -130.87835937 93.36359375 -131.66992188 92.75 C-142.22284278 84.04908177 -148.34607246 71.05154541 -150.34179688 57.5546875 C-151.30820163 40.25232553 -147.5511775 28.77753794 -136.09179688 15.3671875 C-126.24633345 4.85310178 -115.63325062 -0.27395452 -101.90429688 -3.6328125 C-101.2247998 -3.80006836 -100.54530273 -3.96732422 -99.84521484 -4.13964844 C-68.69959682 -11.29362653 -30.88469508 -6.62329125 0 0 Z " fill="#DD211D" transform="translate(1674.341796875,643.4453125)"/>
<path d="M0 0 C1.13405273 0.20866699 2.26810547 0.41733398 3.43652344 0.63232422 C67.07619218 12.6761459 132.17333468 37.89778403 187.4765625 71.48046875 C189.770375 72.86172736 192.07972348 74.20606731 194.40625 75.53125 C212.46349959 85.83538099 229.64693638 97.56030196 245.97460938 110.41894531 C248.07623093 112.05950717 250.19820652 113.66981255 252.328125 115.2734375 C264.2233073 124.23601621 275.51346894 133.7404508 286.5234375 143.76953125 C288.59511711 145.63534995 290.68786325 147.46916862 292.79296875 149.296875 C296.93506464 152.91371911 300.94438986 156.65770639 304.9375 160.4375 C309.2531878 164.51085109 313.57552522 168.55187236 318.0625 172.4375 C321.3360769 175.31726314 324.19371238 178.36200797 327.00390625 181.69140625 C329.01200234 184.01388137 331.09889871 186.24947832 333.20556641 188.48242188 C339.94345677 195.64848674 346.10247439 203.13133375 352 211 C352.51175781 211.68191406 353.02351563 212.36382813 353.55078125 213.06640625 C377.62937897 245.3469594 397.90650803 281.18327318 406 321 C406.19722656 321.96421875 406.39445312 322.9284375 406.59765625 323.921875 C408.69731833 339.9853092 407.63587958 355.33551157 397.77734375 368.78125 C397.19082031 369.5134375 396.60429687 370.245625 396 371 C395.27941406 371.9178125 394.55882813 372.835625 393.81640625 373.78125 C385.2864756 383.93527944 375.20841862 389.06562405 362.06860352 390.26831055 C348.24120612 391.02987543 336.5633324 391.40685518 325 383 C324.04609375 382.34773438 323.0921875 381.69546875 322.109375 381.0234375 C307.73177807 370.30048113 299.53496459 354.90223452 292.21069336 338.96240234 C284.10312488 321.34621162 274.08774257 304.88847692 263 289 C262.46729492 288.23526367 261.93458984 287.47052734 261.38574219 286.68261719 C252.39685314 273.84821411 242.7054742 261.96573708 232.16015625 250.37890625 C230.73931735 248.81418494 229.33004897 247.23886471 227.93359375 245.65234375 C218.95753416 235.48608842 209.40372867 225.71190737 199 217 C198.07316406 216.195625 197.14632813 215.39125 196.19140625 214.5625 C184.70547886 204.63042422 172.54921794 195.54496367 160 187 C158.50146484 185.95199219 158.50146484 185.95199219 156.97265625 184.8828125 C140.5753523 173.55532116 123.03792244 163.51353615 105.03173828 154.97314453 C102.76850076 153.88911848 100.52338786 152.77154065 98.27734375 151.65234375 C74.75073652 140.03754093 50.04383771 131.65835774 25 124 C23.85756836 123.64719971 22.71513672 123.29439941 21.53808594 122.9309082 C12.70391508 120.29280487 3.8220226 118.48874425 -5.25 116.9375 C-5.98545044 116.80960083 -6.72090088 116.68170166 -7.4786377 116.54992676 C-23.20562297 113.82264997 -38.97971931 111.78581403 -54.89453125 110.51953125 C-77.37281171 108.73092042 -98.42637341 104.65920469 -115 88 C-123.58080561 77.78218535 -127.40789111 64.79762986 -127.25 51.625 C-127.24105713 50.78646484 -127.23211426 49.94792969 -127.22290039 49.08398438 C-126.9655182 35.35337795 -123.35026275 26.40180388 -113.75 16.25 C-108.95687721 11.70059532 -103.75921306 8.21388253 -98 5 C-97.17113281 4.53722656 -96.34226562 4.07445312 -95.48828125 3.59765625 C-66.5214365 -10.99666523 -30.58339484 -5.7242269 0 0 Z " fill="#DD201C" transform="translate(1669,907)"/>
<path d="M0 0 C7.16562789 -0.28100502 13.94546999 0.79556805 21 2 C22.1577506 5.47325181 22.06866652 8.36067448 22 12 C16.69502032 13.3116249 12.82679124 12.56701858 7.6875 11.1875 C6.95982422 11.00896484 6.23214844 10.83042969 5.48242188 10.64648438 C3.63488519 10.16953408 1.81392017 9.59208698 0 9 C-1.53445094 5.93109813 -0.54984289 3.29905734 0 0 Z " fill="#E0DBD7" transform="translate(1356,2163)"/>
<path d="M0 0 C0.66 0.33 1.32 0.66 2 1 C2 1.66 2 2.32 2 3 C2.66 3 3.32 3 4 3 C4 2.34 4 1.68 4 1 C8.06921267 2.5071158 10.79860056 5.33375958 13 9 C13.8125 12.875 13.8125 12.875 14 16 C11.36 15.67 8.72 15.34 6 15 C6.66 14.67 7.32 14.34 8 14 C7.34 11.69 6.68 9.38 6 7 C4.02 7.33 2.04 7.66 0 8 C-0.66 6.02 -1.32 4.04 -2 2 C-1.34 2 -0.68 2 0 2 C0 1.34 0 0.68 0 0 Z " fill="#E12420" transform="translate(2226,952)"/>
<path d="M0 0 C2.31 1.98 4.62 3.96 7 6 C4.48169253 9.12270126 3.2738451 9.94523098 -0.75 10.75 C-2.35875 10.87375 -2.35875 10.87375 -4 11 C-4.36630156 7.06225823 -4.30233203 5.43460229 -2 2.125 C-1.34 1.42375 -0.68 0.7225 0 0 Z " fill="#E82822" transform="translate(2179,893)"/>
<path d="M0 0 C4.34871974 0.50177535 6.95603922 3.02522015 10 6 C10 7.32 10 8.64 10 10 C9.34 10 8.68 10 8 10 C7.67 10.66 7.34 11.32 7 12 C7.33 10.35 7.66 8.7 8 7 C5.69 7.33 3.38 7.66 1 8 C-1 5 -1 5 -0.625 2.3125 C-0.41875 1.549375 -0.2125 0.78625 0 0 Z " fill="#E82821" transform="translate(2129,848)"/>
<path d="M0 0 C2 1 2 1 2.875 2.8125 C3 5 3 5 1.25 7.25 C-1 9 -1 9 -4 9 C-4 9.66 -4 10.32 -4 11 C-4.804375 11.474375 -5.60875 11.94875 -6.4375 12.4375 C-9.2918076 13.79983672 -9.2918076 13.79983672 -10 17 C-11.98 17 -13.96 17 -16 17 C-15.29875 16.443125 -14.5975 15.88625 -13.875 15.3125 C-12.92625 14.549375 -11.9775 13.78625 -11 13 C-10.01 12.2575 -9.02 11.515 -8 10.75 C-4.4111512 7.7840861 -2.25519739 4.02143606 0 0 Z " fill="#180403" transform="translate(2362,1278)"/>
<path d="M0 0 C4.22797927 2.99481865 4.22797927 2.99481865 6 5 C6.375 8.3125 6.375 8.3125 6 11 C3.0280615 9.87548273 0.66559313 8.77706209 -2 7 C-1.34 4.69 -0.68 2.38 0 0 Z " fill="#E92723" transform="translate(2186,901)"/>
<path d="M0 0 C1.875 0.3125 1.875 0.3125 4 1 C4.66 1.99 5.32 2.98 6 4 C8.32817964 4.36760731 10.6618385 4.70241581 13 5 C13.33 5.66 13.66 6.32 14 7 C12.58456585 7.19658808 11.16755969 7.38187546 9.75 7.5625 C8.96109375 7.66691406 8.1721875 7.77132812 7.359375 7.87890625 C4.99467126 8.00027349 3.2488963 7.69633257 1 7 C1.33 6.01 1.66 5.02 2 4 C1.34 3.67 0.68 3.34 0 3 C0 2.01 0 1.02 0 0 Z " fill="#EC2822" transform="translate(2103,832)"/>
<path d="M0 0 C0.66 0.33 1.32 0.66 2 1 C2 1.66 2 2.32 2 3 C2.66 3 3.32 3 4 3 C4.33 2.34 4.66 1.68 5 1 C6.6627026 3.67478244 7.99983813 5.9995144 9 9 C8.34 9.66 7.68 10.32 7 11 C6.67 9.68 6.34 8.36 6 7 C4.02 7.33 2.04 7.66 0 8 C-0.66 6.02 -1.32 4.04 -2 2 C-1.34 2 -0.68 2 0 2 C0 1.34 0 0.68 0 0 Z " fill="#ED2723" transform="translate(2226,952)"/>
<path d="M0 0 C5.28 0.99 10.56 1.98 16 3 C15.01 3.33 14.02 3.66 13 4 C13 4.99 13 5.98 13 7 C7.06 5.515 7.06 5.515 1 4 C0.67 2.68 0.34 1.36 0 0 Z " fill="#D41F1B" transform="translate(1728,655)"/>
<path d="M0 0 C1.98 0 3.96 0 6 0 C6.268125 0.639375 6.53625 1.27875 6.8125 1.9375 C7.88667752 4.33131686 7.88667752 4.33131686 11 5 C11.33 6.65 11.66 8.3 12 10 C3.55353075 3.84965831 3.55353075 3.84965831 0 0 Z " fill="#160403" transform="translate(2085,812)"/>
<path d="M0 0 C2.12038635 2.61514317 4.13091744 5.19637616 6 8 C5.34 8 4.68 8 4 8 C4 8.66 4 9.32 4 10 C2.35 10.33 0.7 10.66 -1 11 C-1.33 10.34 -1.66 9.68 -2 9 C-1.34 9 -0.68 9 0 9 C-0.185625 7.88625 -0.37125 6.7725 -0.5625 5.625 C-1 2 -1 2 0 0 Z " fill="#EC2722" transform="translate(2257,990)"/>
<path d="M0 0 C-4.95 1.485 -4.95 1.485 -10 3 C-9.34 3.66 -8.68 4.32 -8 5 C-10.97 4.505 -10.97 4.505 -14 4 C-14.33 3.01 -14.66 2.02 -15 1 C-13.25559202 0.44058641 -11.50414743 -0.09691897 -9.75 -0.625 C-8.77546875 -0.92664063 -7.8009375 -1.22828125 -6.796875 -1.5390625 C-4 -2 -4 -2 0 0 Z " fill="#CF1E1A" transform="translate(1576,642)"/>
<path d="M0 0 C3.09411467 1.54705733 3.71558965 3.88071772 5 7 C4.6875 9.375 4.6875 9.375 4 11 C2.68 10.67 1.36 10.34 0 10 C-0.19412181 8.52168779 -0.38012131 7.04230684 -0.5625 5.5625 C-0.66691406 4.73878906 -0.77132812 3.91507813 -0.87890625 3.06640625 C-0.91886719 2.38449219 -0.95882812 1.70257812 -1 1 C-0.67 0.67 -0.34 0.34 0 0 Z " fill="#EA2821" transform="translate(2273,1012)"/>
<path d="M0 0 C3.4375 1 3.4375 1 6 2 C6 2.33 6 2.66 6 3 C0.47032059 3.71033431 -4.49983036 4.30267176 -10 3 C-7.28167418 -0.83763645 -4.41922402 -0.37451051 0 0 Z " fill="#CB1E19" transform="translate(1580,747)"/>
<path d="M0 0 C5.75 1.75 5.75 1.75 8 4 C8 4.99 8 5.98 8 7 C7.01 6.67 6.02 6.34 5 6 C2.3430809 6.87914688 2.3430809 6.87914688 0 8 C0.185625 7.236875 0.37125 6.47375 0.5625 5.6875 C1.22819173 2.91032625 1.22819173 2.91032625 0 0 Z " fill="#EC2922" transform="translate(2200,921)"/>
<path d="M0 0 C0.99 0.33 1.98 0.66 3 1 C3 2.65 3 4.3 3 6 C3.99 6.33 4.98 6.66 6 7 C3 9 3 9 -1 10 C-0.67 6.7 -0.34 3.4 0 0 Z " fill="#ED2823" transform="translate(2193,911)"/>
<path d="M0 0 C1.12894876 0.93274109 2.25300876 1.87140122 3.375 2.8125 C4.00148438 3.33457031 4.62796875 3.85664062 5.2734375 4.39453125 C7 6 7 6 9 9 C6.16032769 9 3.76264289 8.59732819 1 8 C0.03601353 5.1080406 0 3.0005625 0 0 Z " fill="#130502" transform="translate(2080,956)"/>
<path d="M0 0 C0.66 0.33 1.32 0.66 2 1 C1.855625 1.928125 1.71125 2.85625 1.5625 3.8125 C0.83635037 8.85405316 0.4312193 13.92629204 0 19 C-0.33 19 -0.66 19 -1 19 C-1.02683987 16.02077407 -1.04676037 13.04178705 -1.0625 10.0625 C-1.07087891 9.21236328 -1.07925781 8.36222656 -1.08789062 7.48632812 C-1.09111328 6.67744141 -1.09433594 5.86855469 -1.09765625 5.03515625 C-1.10289307 4.2862915 -1.10812988 3.53742676 -1.11352539 2.76586914 C-1 1 -1 1 0 0 Z " fill="#1E0504" transform="translate(2077,1231)"/>
<path d="M0 0 C3.46941546 0.45822468 6.67395049 0.89131683 10 2 C10 3.32 10 4.64 10 6 C6.51329166 4.8905928 3.22515763 3.73662334 0 2 C0 1.34 0 0.68 0 0 Z " fill="#CB1E1B" transform="translate(1770,1058)"/>
<path d="M0 0 C3.26520744 0.80075325 6.50746067 1.67466185 9.75 2.5625 C11.22726562 2.96662109 11.22726562 2.96662109 12.734375 3.37890625 C13.85585937 3.68634766 13.85585937 3.68634766 15 4 C14.67 4.66 14.34 5.32 14 6 C8.88634986 4.9318153 3.92772031 3.76892524 -1 2 C-0.67 1.34 -0.34 0.68 0 0 Z " fill="#CA1E1A" transform="translate(1797,786)"/>
<path d="M0 0 C3.55780196 0.60990891 6.6828589 1.5783681 10 3 C10 3.33 10 3.66 10 4 C8.02 4 6.04 4 4 4 C4 4.66 4 5.32 4 6 C1.03 5.505 1.03 5.505 -2 5 C-1.67 4.360625 -1.34 3.72125 -1 3.0625 C0.07271225 1.23205433 0.07271225 1.23205433 0 0 Z " fill="#130402" transform="translate(1854,809)"/>
<path d="M0 0 C5.625 -0.25 5.625 -0.25 9 2 C9 2.66 9 3.32 9 4 C9.66 4.33 10.32 4.66 11 5 C8 6 8 6 5.95703125 5.0390625 C5.24933594 4.57242188 4.54164062 4.10578125 3.8125 3.625 C3.09707031 3.16351562 2.38164063 2.70203125 1.64453125 2.2265625 C1.10183594 1.82179688 0.55914063 1.41703125 0 1 C0 0.67 0 0.34 0 0 Z " fill="#CE1E1C" transform="translate(1548,739)"/>
<path d="M0 0 C0.66 0 1.32 0 2 0 C2 0.66 2 1.32 2 2 C3.65 1.67 5.3 1.34 7 1 C7.66 2.65 8.32 4.3 9 6 C5.37 5.01 1.74 4.02 -2 3 C-1.34 2.67 -0.68 2.34 0 2 C0 1.34 0 0.68 0 0 Z " fill="#150402" transform="translate(1819,674)"/>
<path d="M0 0 C1.89213369 2.38573379 3.02391783 4.07175348 4 7 C2.35 7.33 0.7 7.66 -1 8 C-1.66 7.01 -2.32 6.02 -3 5 C-2.01 3.35 -1.02 1.7 0 0 Z " fill="#120403" transform="translate(1547,984)"/>
<path d="M0 0 C0.33 0.66 0.66 1.32 1 2 C0.67 2.66 0.34 3.32 0 4 C0.66 4 1.32 4 2 4 C2 4.99 2 5.98 2 7 C1.34 6.67 0.68 6.34 0 6 C-0.33 6.33 -0.66 6.66 -1 7 C-1.66 6.67 -2.32 6.34 -3 6 C-3.99 7.32 -4.98 8.64 -6 10 C-6.66 9.67 -7.32 9.34 -8 9 C-5.36 6.03 -2.72 3.06 0 0 Z " fill="#D11F1A" transform="translate(1541,656)"/>
<path d="M0 0 C5.75 0.875 5.75 0.875 8 2 C8 2.66 8 3.32 8 4 C1.07 3.505 1.07 3.505 -6 3 C-6 2.67 -6 2.34 -6 2 C-4.02 1.67 -2.04 1.34 0 1 C0 0.67 0 0.34 0 0 Z " fill="#280705" transform="translate(1642,636)"/>
<path d="M0 0 C0 2.64 0 5.28 0 8 C-0.99 8.33 -1.98 8.66 -3 9 C-3.33 6.36 -3.66 3.72 -4 1 C-2 0 -2 0 0 0 Z " fill="#F4F3F1" transform="translate(1868,1233)"/>
<path d="M0 0 C3 1 3 1 4.25 3.4375 C5 6 5 6 4 8 C2.68 7.67 1.36 7.34 0 7 C0 4.69 0 2.38 0 0 Z " fill="#EB2720" transform="translate(2240,968)"/>
<path d="M0 0 C0.66 0 1.32 0 2 0 C2.66 1.32 3.32 2.64 4 4 C3.34 4 2.68 4 2 4 C2.33 5.32 2.66 6.64 3 8 C0.36 6.02 -2.28 4.04 -5 2 C-4.34 1.67 -3.68 1.34 -3 1 C-2.01 1.33 -1.02 1.66 0 2 C0 1.34 0 0.68 0 0 Z " fill="#CB1E1B" transform="translate(2061,933)"/>
<path d="M0 0 C1.14926266 0.95421808 2.29430541 1.91352045 3.4375 2.875 C4.07558594 3.40867187 4.71367188 3.94234375 5.37109375 4.4921875 C7 6 7 6 8 8 C5.69 7.67 3.38 7.34 1 7 C0.67 4.69 0.34 2.38 0 0 Z " fill="#1C0502" transform="translate(1981,1278)"/>
<path d="M0 0 C0.66 0.33 1.32 0.66 2 1 C1.67 1.66 1.34 2.32 1 3 C2.98 3.66 4.96 4.32 7 5 C7 5.66 7 6.32 7 7 C5.53932801 6.54917531 4.08151968 6.08906463 2.625 5.625 C1.81289062 5.36976563 1.00078125 5.11453125 0.1640625 4.8515625 C-2 4 -2 4 -4 2 C-2.125 0.9375 -2.125 0.9375 0 0 Z " fill="#130402" transform="translate(1908,705)"/>
<path d="M0 0 C0.66 0.66 1.32 1.32 2 2 C0.68 4.31 -0.64 6.62 -2 9 C-3.125 7.25 -3.125 7.25 -4 5 C-3.125 2.75 -3.125 2.75 -2 1 C-1.34 1.33 -0.68 1.66 0 2 C0 1.34 0 0.68 0 0 Z " fill="#CD1E1B" transform="translate(2070,1265)"/>
<path d="M0 0 C0.66 0 1.32 0 2 0 C2 0.66 2 1.32 2 2 C2.66 2 3.32 2 4 2 C4 2.66 4 3.32 4 4 C4.99 4.33 5.98 4.66 7 5 C6.01 5.99 5.02 6.98 4 8 C2.35 5.69 0.7 3.38 -1 1 C-0.67 0.67 -0.34 0.34 0 0 Z " fill="#150402" transform="translate(2216,932)"/>
<path d="M0 0 C3.96 1.98 3.96 1.98 8 4 C7.01 5.485 7.01 5.485 6 7 C5.01 7 4.02 7 3 7 C3 6.34 3 5.68 3 5 C2.34 5 1.68 5 1 5 C0.67 3.35 0.34 1.7 0 0 Z " fill="#140402" transform="translate(1936,848)"/>
<path d="M0 0 C1.125 1.75 1.125 1.75 2 4 C1.375 6.1875 1.375 6.1875 0 8 C-2.125 8.75 -2.125 8.75 -4 9 C-2.94124926 5.59687262 -1.99097846 2.98646769 0 0 Z " fill="#CB1E1A" transform="translate(1530,670)"/>
<path d="M0 0 C3.96 0.33 7.92 0.66 12 1 C11.67 1.66 11.34 2.32 11 3 C8.5625 3.75 8.5625 3.75 6 4 C5.34 3.34 4.68 2.68 4 2 C1.41645782 1.83312552 1.41645782 1.83312552 -1 2 C-0.67 1.34 -0.34 0.68 0 0 Z " fill="#260605" transform="translate(1626,1018)"/>
<path d="M0 0 C1.98 0.495 1.98 0.495 4 1 C4.33 2.65 4.66 4.3 5 6 C2 6 2 6 0.3125 4.5 C-0.120625 4.005 -0.55375 3.51 -1 3 C-0.67 2.01 -0.34 1.02 0 0 Z " fill="#CE1F1C" transform="translate(2104,979)"/>
<path d="M0 0 C1.9451 2.91765 2.45276317 4.62537285 3 8 C2.01 8.495 2.01 8.495 1 9 C0.67 8.34 0.34 7.68 0 7 C-0.99 7.495 -0.99 7.495 -2 8 C-2.20086443 4.28400809 -2.1519437 3.22791555 0 0 Z " fill="#D11E18" transform="translate(2347,1146)"/>
<path d="M0 0 C1.65 0 3.3 0 5 0 C4.67 0.99 4.34 1.98 4 3 C4.38932856 5.14255793 4.38932856 5.14255793 5 7 C3.02 6.01 1.04 5.02 -1 4 C-0.67 2.68 -0.34 1.36 0 0 Z " fill="#CE1E1B" transform="translate(1803,1073)"/>
<path d="M0 0 C1.32 1.32 2.64 2.64 4 4 C3.67 4.99 3.34 5.98 3 7 C1.68 6.67 0.36 6.34 -1 6 C-1.625 4.125 -1.625 4.125 -2 2 C-1.34 1.34 -0.68 0.68 0 0 Z M0 4 C1 6 1 6 1 6 Z " fill="#EB2824" transform="translate(2210,929)"/>
<path d="M0 0 C0.33 1.65 0.66 3.3 1 5 C-4.75 4.25 -4.75 4.25 -7 2 C-4 0 -4 0 0 0 Z " fill="#140504" transform="translate(1929,713)"/>
<path d="M0 0 C2.52588702 2.36292656 3.88820837 3.66462511 5 7 C2.03 6.505 2.03 6.505 -1 6 C-0.67 4.02 -0.34 2.04 0 0 Z " fill="#160403" transform="translate(1954,1233)"/>
<path d="M0 0 C3.3 0.99 6.6 1.98 10 3 C4.76844369 5.61577816 3.40261966 4.6207859 -2 3 C-1.34 2.67 -0.68 2.34 0 2 C0 1.34 0 0.68 0 0 Z " fill="#C51D1A" transform="translate(1774,778)"/>
<path d="M0 0 C4.95 0.99 4.95 0.99 10 2 C6.23312136 3.88343932 4.97041037 4.22057835 1 4 C0.67 2.68 0.34 1.36 0 0 Z " fill="#C51D1A" transform="translate(1728,655)"/>
<path d="M0 0 C3 2 3 2 3.6875 4.125 C3.790625 4.74375 3.89375 5.3625 4 6 C2.68 6.33 1.36 6.66 0 7 C-0.38133299 5.0085944 -0.71325582 3.00720923 -1 1 C-0.67 0.67 -0.34 0.34 0 0 Z " fill="#E92922" transform="translate(2217,937)"/>
<path d="M0 0 C1.9375 0.8125 1.9375 0.8125 4 2 C4.33 2.99 4.66 3.98 5 5 C3.02 5.33 1.04 5.66 -1 6 C-0.67 4.02 -0.34 2.04 0 0 Z " fill="#E92722" transform="translate(2145,860)"/>
<path d="M0 0 C2.97 1.65 5.94 3.3 9 5 C5 6 5 6 2 5 C2 4.34 2 3.68 2 3 C1.01 2.67 0.02 2.34 -1 2 C-0.67 1.34 -0.34 0.68 0 0 Z " fill="#D01F1B" transform="translate(2034,777)"/>
<path d="M0 0 C1.5625 1.25 1.5625 1.25 3 3 C2.6875 5.1875 2.6875 5.1875 2 7 C0.02 5.68 -1.96 4.36 -4 3 C-2.68 2.01 -1.36 1.02 0 0 Z " fill="#140402" transform="translate(2028,768)"/>
<path d="M0 0 C-1.6875 1.5625 -1.6875 1.5625 -4 3 C-6.75 2.6875 -6.75 2.6875 -9 2 C-6.98558063 -2.02883874 -3.72407517 -0.90585612 0 0 Z " fill="#CF1E1B" transform="translate(2052,1290)"/>
<path d="M0 0 C0.33 0 0.66 0 1 0 C1.33 3.3 1.66 6.6 2 10 C1.34 9.67 0.68 9.34 0 9 C-0.66 9.66 -1.32 10.32 -2 11 C-2 9.35 -2 7.7 -2 6 C-1.34 6 -0.68 6 0 6 C0 4.02 0 2.04 0 0 Z " fill="#C21D18" transform="translate(2365,1210)"/>
<path d="M0 0 C1.65 0 3.3 0 5 0 C5 2.31 5 4.62 5 7 C3.29115995 5.37660195 1.62553283 3.70680947 0 2 C0 1.34 0 0.68 0 0 Z " fill="#140502" transform="translate(2250,975)"/>
<path d="M0 0 C1.1446875 0.2784375 1.1446875 0.2784375 2.3125 0.5625 C5.08967375 1.22819173 5.08967375 1.22819173 8 0 C8.33 1.65 8.66 3.3 9 5 C5.54074837 3.7508258 2.85306797 2.32472205 0 0 Z " fill="#1C0502" transform="translate(1847,973)"/>
<path d="M0 0 C2.97 0 5.94 0 9 0 C8.67 1.32 8.34 2.64 8 4 C5.36 3.01 2.72 2.02 0 1 C0 0.67 0 0.34 0 0 Z " fill="#C91D1A" transform="translate(1841,803)"/>
<path d="M0 0 C0.99 0.33 1.98 0.66 3 1 C3 2.65 3 4.3 3 6 C2.01 6.495 2.01 6.495 1 7 C0.34 5.02 -0.32 3.04 -1 1 C-0.67 0.67 -0.34 0.34 0 0 Z " fill="#CF1D1A" transform="translate(2267,1263)"/>
<path d="M0 0 C1.88391785 3.26545761 2.49287967 6.28111761 3 10 C2.34 10 1.68 10 1 10 C-1.125 3.375 -1.125 3.375 0 0 Z " fill="#C31D19" transform="translate(2069,1208)"/>
<path d="M0 0 C3.37503669 1.1858237 5.64722731 2.27573689 8 5 C6.02 5.33 4.04 5.66 2 6 C1.34 4.02 0.68 2.04 0 0 Z " fill="#DED9D4" transform="translate(1762,1144)"/>
<path d="M0 0 C2.125 0.375 2.125 0.375 4 1 C4.33 2.65 4.66 4.3 5 6 C1.535 4.02 1.535 4.02 -2 2 C-1.34 1.34 -0.68 0.68 0 0 Z " fill="#1B0404" transform="translate(1888,996)"/>
<path d="M0 0 C0.66 0 1.32 0 2 0 C0.375 7.75 0.375 7.75 -3 10 C-2.01 6.7 -1.02 3.4 0 0 Z " fill="#DBD5D1" transform="translate(988,1402)"/>
<path d="M0 0 C0.928125 0.2784375 0.928125 0.2784375 1.875 0.5625 C4.04160178 1.23686176 4.04160178 1.23686176 6 0 C6.33 0.99 6.66 1.98 7 3 C5.68 3.99 4.36 4.98 3 6 C2.01 4.02 1.02 2.04 0 0 Z " fill="#130403" transform="translate(2024,1122)"/>
<path d="M0 0 C1 3 1 3 1 5 C1.99 4.67 2.98 4.34 4 4 C3.67 5.65 3.34 7.3 3 9 C-1 4.375 -1 4.375 -1 1 C-0.67 0.67 -0.34 0.34 0 0 Z " fill="#180403" transform="translate(2283,1017)"/>
<path d="M0 0 C0.66 0.33 1.32 0.66 2 1 C0.8125 3.5 0.8125 3.5 -1 6 C-3.6875 6.3125 -3.6875 6.3125 -6 6 C-4 4 -2 2 0 0 Z " fill="#1A1512" transform="translate(1812,2087)"/>
<path d="M0 0 C3 3.75 3 3.75 3 6 C2.01 6.33 1.02 6.66 0 7 C-0.38133299 5.0085944 -0.71325582 3.00720923 -1 1 C-0.67 0.67 -0.34 0.34 0 0 Z " fill="#180402" transform="translate(1961,1245)"/>
<path d="M0 0 C2.475 0.495 2.475 0.495 5 1 C4.67 2.32 4.34 3.64 4 5 C3.34 5 2.68 5 2 5 C2 4.01 2 3.02 2 2 C1.34 2 0.68 2 0 2 C0 1.34 0 0.68 0 0 Z " fill="#F3F2F0" transform="translate(1853,1218)"/>
<path d="M0 0 C0.66 0.66 1.32 1.32 2 2 C2.66 2 3.32 2 4 2 C3.67 3.98 3.34 5.96 3 8 C0.9375 5.6875 0.9375 5.6875 -1 3 C-0.67 2.01 -0.34 1.02 0 0 Z " fill="#160502" transform="translate(2041,1144)"/>
<path d="M0 0 C0.99 1.32 1.98 2.64 3 4 C2.01 5.32 1.02 6.64 0 8 C-1.125 2.25 -1.125 2.25 0 0 Z " fill="#190302" transform="translate(2211,1133)"/>
<path d="M0 0 C0.66 1.32 1.32 2.64 2 4 C0.35 4.33 -1.3 4.66 -3 5 C-3.33 5.99 -3.66 6.98 -4 8 C-3.67 6.02 -3.34 4.04 -3 2 C-2.34 2 -1.68 2 -1 2 C-0.67 1.34 -0.34 0.68 0 0 Z " fill="#CF1F1B" transform="translate(2325,1095)"/>
<path d="M0 0 C0.99 0 1.98 0 3 0 C4.6875 2.5 4.6875 2.5 6 5 C5.34 5 4.68 5 4 5 C3.67 5.66 3.34 6.32 3 7 C0 2.25 0 2.25 0 0 Z " fill="#160503" transform="translate(2154,1045)"/>
<path d="M0 0 C3.73639216 1.24546405 4.18756513 2.63404953 6 6 C3.03 5.505 3.03 5.505 0 5 C0 3.35 0 1.7 0 0 Z " fill="#EC2721" transform="translate(2264,1002)"/>
<path d="M0 0 C2.62187494 1.04874998 3.79371361 1.64931313 5.25 4.125 C5.4975 4.74375 5.745 5.3625 6 6 C3.5625 5.25 3.5625 5.25 1 4 C0.1875 1.875 0.1875 1.875 0 0 Z " fill="#E72820" transform="translate(2160,874)"/>
<path d="M0 0 C2 3 2 3 2 5 C0.02 4.34 -1.96 3.68 -4 3 C-4 2.34 -4 1.68 -4 1 C-2.68 0.67 -1.36 0.34 0 0 Z " fill="#160502" transform="translate(1967,733)"/>
</svg>
